#!OML:ASF H:\BreakDance\Project 1\Capture day 1\Session 1\Male.ASF
:FULLY-SPECIFIED
:DEGREES
1763
root -0.62364 11.6757 1.50623 -268.354 -498.852 -402.228
lowerback 28.0033 -0.0887487 -6.25148
upperback 12.485 -2.81287 3.71068
thorax -0.897664 -2.21562 8.50229
lowerneck -10.1049 -3.51698 -3.09208
upperneck -25.6152 -5.25974 5.64593
head -5.95167 -3.69748 2.55458
rclavicle -4.77083e-014 -3.4191e-014
rhumerus 35.0605 4.70152 -57.9284
rradius 26.5483
rwrist -46.9955
rhand -20.543 -30.7586
rfingers 7.12502
rthumb 5.81558 299.341
lclavicle -4.77083e-014 -3.4191e-014
lhumerus 67.6898 -24.8288 47.9
lradius 22.6435
lwrist 33.016
lhand -31.7518 -353.185
lfingers 7.12502
lthumb -5.0091 36.7354
rfemur -111.031 -4.75599 26.1121
rtibia 127.301
rfoot -16.994 6.03081
rtoes -1.97796
lfemur 447.055 155.096 499.795
ltibia 107.918
lfoot -2.11705 -30.4986
ltoes -21.7995
1764
root -0.568943 11.5689 1.43881 -267.627 -498.72 -405.65
lowerback 28.546 -0.487163 -6.11633
upperback 12.6881 -3.33995 3.83828
thorax -0.809504 -2.49761 8.73585
lowerneck -9.58514 -3.75626 -3.66403
upperneck -25.9227 -5.3826 6.50398
head -6.07682 -3.75618 2.95192
rclavicle -3.49861e-014 -1.35174e-014
rhumerus 33.6348 5.80341 -56.7819
rradius 27.2676
rwrist -48.7339
rhand -20.8175 -31.3181
rfingers 7.12502
rthumb 5.55059 298.775
lclavicle -3.49861e-014 -1.35174e-014
lhumerus 70.9908 -26.7306 40.8931
lradius 24.1038
lwrist 30.9537
lhand -31.7546 -353.925
lfingers 7.12502
lthumb -5.01182 35.9961
rfemur -111.275 -2.22841 25.566
rtibia 124.548
rfoot -15.5586 4.47196
rtoes 7.64993
lfemur 445.471 155.353 498.328
ltibia 110.806
lfoot -1.93222 -30.7444
ltoes -20.7753
1765
root -0.527436 11.456 1.38119 -266.623 -498.598 -409.338
lowerback 28.9467 -1.05319 -5.80507
upperback 12.8279 -4.01181 3.9753
thorax -0.710168 -2.83773 8.91144
lowerneck -9.21939 -4.08408 -4.43046
upperneck -25.8574 -5.60854 7.38666
head -6.0394 -3.83185 3.37149
rclavicle 3.81667e-014 1.59028e-015
rhumerus 32.3041 6.72716 -55.9858
rradius 27.616
rwrist -49.8922
rhand -20.671 -31.5866
rfingers 7.12502
rthumb 5.69197 298.51
lclavicle 3.81667e-014 1.59028e-015
lhumerus 74.8376 -28.1398 32.53
lradius 26.2808
lwrist 27.4373
lhand -31.5826 -352.663
lfingers 7.12502
lthumb -4.84568 37.2612
rfemur -111.628 -0.649744 24.9619
rtibia 121.632
rfoot -16.8825 3.28016
rtoes 1.96887
lfemur 443.886 156.037 496.907
ltibia 113.481
lfoot -1.05645 -30.8898
ltoes -18.3833
1766
root -0.498617 11.3399 1.3154 -265.816 -498.403 -412.715
lowerback 29.2841 -1.56179 -5.59463
upperback 12.9048 -4.62352 4.12634
thorax -0.65382 -3.14846 9.14731
lowerneck -8.60664 -4.35498 -5.20016
upperneck -25.7911 -5.77872 8.18236
head -6.0425 -3.87096 3.77029
rclavicle -1.84472e-013 9.38264e-014
rhumerus 31.0253 7.52101 -55.652
rradius 27.6495
rwrist -50.2945
rhand -19.9316 -31.5055
rfingers 7.12502
rthumb 6.40588 298.611
lclavicle -1.84472e-013 9.38264e-014
lhumerus 78.2674 -28.8785 25.7377
lradius 27.8527
lwrist 22.4938
lhand -31.3493 -352.107
lfingers 7.12502
lthumb -4.62045 37.8229
rfemur -112.012 0.752101 24.255
rtibia 118.439
rfoot -17.2579 1.72569
rtoes 1.33699
lfemur 442.402 156.415 495.507
ltibia 115.894
lfoot -0.574236 -31.0585
ltoes -18.0693
1767
root -0.478155 11.2156 1.25919 -264.916 -498.044 -415.899
lowerback 29.3183 -2.13218 -5.21079
upperback 12.9269 -5.24244 4.26736
thorax -0.540823 -3.45077 9.24871
lowerneck -7.98062 -4.63981 -6.0026
upperneck -25.5654 -5.94623 9.11836
head -5.98378 -3.90962 4.2127
rclavicle -6.99722e-014 -1.19271e-015
rhumerus 29.7583 8.15659 -55.7281
rradius 27.6059
rwrist -50.4208
rhand -19.9379 -32.0789
rfingers 7.12502
rthumb 6.39972 298.038
lclavicle -6.99722e-014 -1.19271e-015
lhumerus 80.5797 -29.1546 21.9418
lradius 28.6286
lwrist 15.7825
lhand -30.0094 -353.147
lfingers 7.12502
lthumb -3.32657 36.8068
rfemur -112.471 1.86681 23.6328
rtibia 115.12
rfoot -17.3836 0.201904
rtoes 1.38378
lfemur 440.688 156.808 494.068
ltibia 118.251
lfoot -1.94557 -31.3668
ltoes -25.8808
